<svg id="Layer_1" data-name="Layer 1" xmlns="http://www.w3.org/2000/svg" viewBox="0 0 46.61099 60.96776"><title>esign_logo</title><path id="Path_1887" data-name="Path 1887" fill="#25326d" d="M44.825,0H1.787A1.792,1.792,0,0,0,0,1.79V50.451a2.84007,2.84007,0,0,0,1.665,2.445l19.972,7.8a5.24219,5.24219,0,0,0,3.332,0l19.977-7.8a2.845,2.845,0,0,0,1.665-2.445V1.79A1.793,1.793,0,0,0,44.825,0ZM34.107,21.887,23.312,26.681,14.72,22.86v2.321l8.592,3.813,10.795-4.788v7.122L23.312,36.123,14.72,32.304v2.319l8.592,3.813,10.795-4.785v7.118l-10.795,4.8-10.8-4.806v-2.409l10.8,4.806,8.595-3.813V37.032l-8.595,3.815L12.52,36.056V28.932l10.792,4.787,8.595-3.813v-2.321l-8.595,3.819-10.792-4.792V19.48l10.792,4.792,8.595-3.816V18.143l-8.595,3.815-10.8-4.8V14.752l10.8,4.805,10.795-4.79Z"/></svg>
